<?xml version="1.0" encoding="UTF-8" standalone="no"?>
<!-- Created with Inkscape (http://www.inkscape.org/) -->
<svg
   xmlns:svg="http://www.w3.org/2000/svg"
   xmlns="http://www.w3.org/2000/svg"
   version="1.0"
   width="384.61871"
   height="286.67609"
   id="svg2">
  <defs
     id="defs4">
    <marker
       refX="0"
       refY="0"
       orient="auto"
       style="overflow:visible"
       id="Arrow1Mend">
      <path
         d="M 0,0 L 5,-5 L -12.5,0 L 5,5 L 0,0 z "
         transform="matrix(-0.4,0,0,-0.4,-4,0)"
         style="fill-rule:evenodd;stroke:#000000;stroke-width:1pt;marker-start:none"
         id="path3315" />
    </marker>
    <marker
       refX="0"
       refY="0"
       orient="auto"
       style="overflow:visible"
       id="Arrow1Mstart">
      <path
         d="M 0,0 L 5,-5 L -12.5,0 L 5,5 L 0,0 z "
         transform="matrix(0.4,0,0,0.4,4,0)"
         style="fill-rule:evenodd;stroke:#000000;stroke-width:1pt;marker-start:none"
         id="path3318" />
    </marker>
    <marker
       refX="0"
       refY="0"
       orient="auto"
       style="overflow:visible"
       id="Arrow1Sstart">
      <path
         d="M 0,0 L 5,-5 L -12.5,0 L 5,5 L 0,0 z "
         transform="matrix(0.2,0,0,0.2,1.2,0)"
         style="fill-rule:evenodd;stroke:#000000;stroke-width:1pt;marker-start:none"
         id="path3312" />
    </marker>
    <marker
       refX="0"
       refY="0"
       orient="auto"
       style="overflow:visible"
       id="Arrow1Lstart">
      <path
         d="M 0,0 L 5,-5 L -12.5,0 L 5,5 L 0,0 z "
         transform="matrix(0.8,0,0,0.8,10,0)"
         style="fill-rule:evenodd;stroke:#000000;stroke-width:1pt;marker-start:none"
         id="path3324" />
    </marker>
    <marker
       refX="0"
       refY="0"
       orient="auto"
       style="overflow:visible"
       id="Arrow1Lend">
      <path
         d="M 0,0 L 5,-5 L -12.5,0 L 5,5 L 0,0 z "
         transform="matrix(-0.8,0,0,-0.8,-10,0)"
         style="fill-rule:evenodd;stroke:#000000;stroke-width:1pt;marker-start:none"
         id="path3321" />
    </marker>
    <marker
       refX="0"
       refY="0"
       orient="auto"
       style="overflow:visible"
       id="Arrow2Send">
      <path
         d="M 8.7185878,4.0337352 L -2.2072895,0.016013256 L 8.7185884,-4.0017078 C 6.97309,-1.6296469 6.9831476,1.6157441 8.7185878,4.0337352 z "
         transform="matrix(-0.3,0,0,-0.3,0.69,0)"
         style="font-size:12px;fill-rule:evenodd;stroke-width:0.625;stroke-linejoin:round"
         id="path3291" />
    </marker>
    <marker
       refX="0"
       refY="0"
       orient="auto"
       style="overflow:visible"
       id="Arrow2Mstart">
      <path
         d="M 8.7185878,4.0337352 L -2.2072895,0.016013256 L 8.7185884,-4.0017078 C 6.97309,-1.6296469 6.9831476,1.6157441 8.7185878,4.0337352 z "
         transform="scale(0.6,0.6)"
         style="font-size:12px;fill-rule:evenodd;stroke-width:0.625;stroke-linejoin:round"
         id="path3300" />
    </marker>
  </defs>
  <g
     transform="translate(-107.31543,-152.85685)"
     id="layer1">
    <path
       d="M 297.14286,155.21933 L 108.57143,335.21933 L 371.42857,426.6479"
       style="fill:none;fill-opacity:0.75;fill-rule:evenodd;stroke:#000000;stroke-width:2.51200008;stroke-linecap:butt;stroke-linejoin:miter;marker-start:url(#Arrow1Mstart);marker-mid:none;marker-end:url(#Arrow1Mend);stroke-miterlimit:4;stroke-dasharray:none;stroke-opacity:1"
       id="path2160" />
    <path
       d="M 171.80882,273.80299 A 87.14286,87.14286 0 0 1 191.42895,363.59743 L 109.28571,334.50504 z"
       style="opacity:1;fill:none;fill-opacity:1;fill-rule:evenodd;stroke:#000000;stroke-width:0.81199998;stroke-linejoin:miter;stroke-miterlimit:4;stroke-dasharray:none;stroke-opacity:1"
       id="path3343" />
    <path
       d="M 238.61607,179.41269 C 238.9442,179.6679 239.40904,179.7955 240.0106,179.7955 C 240.59393,179.7955 241.10891,179.51751 241.55553,178.96152 C 242.00214,178.39641 242.30747,177.78118 242.47154,177.11581 L 243.74303,172.15292 C 243.94354,171.25059 244.0438,170.63536 244.04381,170.30722 C 244.0438,169.84239 243.91164,169.43679 243.64732,169.09042 C 243.39211,168.74408 243.03208,168.5709 242.56725,168.57089 C 241.97479,168.5709 241.4188,168.75775 240.89928,169.13144 C 240.37974,169.49603 239.94224,169.96543 239.58678,170.53964 C 239.23131,171.10476 238.98065,171.67897 238.83482,172.2623 C 238.79836,172.3808 238.72545,172.44004 238.61607,172.44003 L 238.27428,172.44003 C 238.12844,172.44004 238.05553,172.35345 238.05553,172.18027 L 238.05553,172.09824 C 238.23782,171.40554 238.54771,170.73106 238.98521,170.0748 C 239.42271,169.40944 239.95591,168.87168 240.58482,168.46152 C 241.22284,168.05137 241.90188,167.8463 242.62193,167.84628 C 243.30552,167.8463 243.92075,168.02859 244.46764,168.39316 C 245.02362,168.75775 245.41554,169.2545 245.64342,169.88339 C 245.96242,169.30918 246.36802,168.82611 246.86021,168.43417 C 247.36151,168.04226 247.90838,167.8463 248.50084,167.84628 C 248.90187,167.8463 249.31202,167.91921 249.73131,168.06503 C 250.15057,168.20176 250.49236,168.41596 250.7567,168.70761 C 251.02101,168.99929 251.15317,169.36387 251.15318,169.80136 C 251.15317,170.27533 250.99822,170.68549 250.68834,171.03183 C 250.38754,171.36908 250.00017,171.5377 249.52623,171.53769 C 249.22544,171.5377 248.97479,171.44199 248.77428,171.25058 C 248.57374,171.05918 248.47348,170.81765 248.4735,170.52597 C 248.47348,170.13405 248.60564,169.79226 248.86998,169.50058 C 249.1434,169.19981 249.46697,169.02208 249.84068,168.96738 C 249.50343,168.70307 249.03859,168.5709 248.44615,168.57089 C 247.84458,168.5709 247.32049,168.8489 246.87389,169.40488 C 246.43638,169.96088 246.12648,170.58067 245.9442,171.26425 L 244.71373,176.21347 C 244.5132,176.96087 244.41294,177.5761 244.41295,178.05917 C 244.41294,178.53313 244.5451,178.94329 244.80943,179.28964 C 245.08286,179.62688 245.44289,179.7955 245.88951,179.7955 C 246.7645,179.7955 247.5438,179.41269 248.2274,178.64706 C 248.9201,177.87233 249.37583,177.02467 249.59459,176.1041 C 249.63103,175.99472 249.70395,175.94004 249.81334,175.94003 L 250.15514,175.94003 C 250.22804,175.94004 250.28728,175.96738 250.33287,176.02206 C 250.37843,176.06764 250.40122,176.12233 250.40123,176.18613 C 250.40122,176.20436 250.3921,176.2317 250.37389,176.26816 C 250.10955,177.38014 249.55356,178.36907 248.70592,179.23495 C 247.85825,180.10084 246.90122,180.53378 245.83482,180.53378 C 245.15122,180.53378 244.53143,180.35149 243.97545,179.98691 C 243.42857,179.61321 243.0412,179.11191 242.81334,178.483 C 242.52167,179.02988 242.11607,179.50839 241.59654,179.91855 C 241.08612,180.3287 240.53925,180.53378 239.95592,180.53378 C 239.55487,180.53378 239.14016,180.46087 238.71178,180.31503 C 238.2925,180.17831 237.95071,179.96412 237.68639,179.67245 C 237.42206,179.38079 237.2899,179.01165 237.2899,178.56503 C 237.2899,178.12754 237.44029,177.73105 237.74107,177.37558 C 238.05097,177.011 238.43378,176.82871 238.88951,176.8287 C 239.1994,176.82871 239.45917,176.92441 239.66881,177.11581 C 239.87844,177.29811 239.98326,177.53965 239.98326,177.84042 C 239.98326,178.23235 239.8511,178.57415 239.58678,178.86581 C 239.33157,179.15748 239.008,179.33977 238.61607,179.41269"
       style="font-size:28px;font-style:normal;font-variant:normal;font-weight:normal;font-stretch:normal;text-align:start;line-height:125%;writing-mode:lr-tb;text-anchor:start;fill:#000000;fill-opacity:1;stroke:none;stroke-width:1pt;stroke-linecap:butt;stroke-linejoin:miter;stroke-opacity:1;font-family:cmmi10"
       id="text5283" />
    <path
       d="M 318.78012,437.7966 C 319.17205,438.47107 319.85564,438.80831 320.8309,438.80832 C 321.71501,438.80831 322.48064,438.49842 323.12778,437.87863 C 323.77491,437.25884 324.29444,436.50688 324.68637,435.62277 C 325.0874,434.74777 325.3973,433.84999 325.61606,432.92941 C 324.78662,433.71327 323.88884,434.10519 322.9227,434.10519 C 322.18441,434.10519 321.55551,433.97759 321.03598,433.72238 C 320.51644,433.46717 320.11085,433.08892 319.81918,432.58762 C 319.53663,432.0772 319.39535,431.46197 319.39536,430.74191 C 319.39535,430.13124 319.47738,429.50689 319.64145,428.86887 C 319.80551,428.22174 320.03337,427.50624 320.32504,426.72238 C 320.62582,425.92942 320.88559,425.24127 321.10434,424.65793 C 321.35043,423.97434 321.47348,423.4138 321.47348,422.97629 C 321.47348,422.42031 321.2684,422.14232 320.85825,422.1423 C 320.11996,422.14232 319.50928,422.52513 319.02621,423.29074 C 318.55225,424.04726 318.20134,424.89492 317.97348,425.83371 C 317.93702,425.95221 317.85955,426.01145 317.74106,426.01144 L 317.41293,426.01144 C 317.25798,426.01145 317.18051,425.92486 317.18051,425.75168 L 317.18051,425.66965 C 317.48129,424.55768 317.94158,423.5733 318.56137,422.71652 C 319.18116,421.85065 319.96501,421.41771 320.91293,421.41769 C 321.57829,421.41771 322.13884,421.63646 322.59457,422.07394 C 323.05941,422.51146 323.29183,423.06744 323.29184,423.74191 C 323.29183,424.08828 323.21436,424.45286 323.05942,424.83566 C 322.97738,425.06354 322.79053,425.56028 322.49887,426.3259 C 322.2072,427.09153 321.98389,427.72499 321.82895,428.22629 C 321.674,428.72759 321.54639,429.21978 321.44614,429.70285 C 321.34587,430.18593 321.29574,430.669 321.29575,431.15207 C 321.29574,431.77186 321.4279,432.29595 321.69223,432.72433 C 321.95655,433.15272 322.37582,433.36691 322.95004,433.36691 C 324.10759,433.36691 325.14665,432.66053 326.06723,431.24777 L 328.18637,422.62082 C 328.25016,422.37474 328.39599,422.1651 328.62387,421.99191 C 328.85172,421.80963 329.09782,421.71849 329.36215,421.71848 C 329.59,421.71849 329.78597,421.7914 329.95004,421.93723 C 330.12321,422.08307 330.20979,422.27448 330.20981,422.51144 C 330.20979,422.62083 330.20068,422.69375 330.18246,422.73019 L 327.40707,433.87277 C 327.16097,434.8298 326.7098,435.74582 326.05356,436.62082 C 325.3973,437.49582 324.60433,438.19764 323.67465,438.72629 C 322.75407,439.26404 321.79249,439.53292 320.78989,439.53293 C 320.30681,439.53292 319.82829,439.43722 319.35434,439.24582 C 318.88038,439.06352 318.49757,438.78553 318.2059,438.41183 C 317.91423,438.03813 317.7684,437.60063 317.7684,437.09933 C 317.7684,436.58892 317.91879,436.14686 318.21957,435.77316 C 318.52035,435.39946 318.92139,435.21261 319.4227,435.21262 C 319.72348,435.21261 319.97413,435.30376 320.17465,435.48605 C 320.38428,435.67746 320.4891,435.92355 320.48911,436.22433 C 320.4891,436.65272 320.3296,437.02641 320.01059,437.34543 C 319.69158,437.66444 319.31788,437.82394 318.8895,437.82394 C 318.87126,437.81483 318.85304,437.80571 318.83481,437.7966 C 318.81658,437.7966 318.79835,437.7966 318.78012,437.7966"
       style="font-size:28px;font-style:normal;font-variant:normal;font-weight:normal;font-stretch:normal;text-align:start;line-height:125%;writing-mode:lr-tb;text-anchor:start;fill:#000000;fill-opacity:1;stroke:none;stroke-width:1pt;stroke-linecap:butt;stroke-linejoin:miter;stroke-opacity:1;font-family:cmmi10"
       id="text5287" />
    <path
       d="M 227.20564,316.94089 L 218.49666,316.94089 C 218.63337,319.66615 219.01618,321.60756 219.6451,322.76511 C 220.42894,324.18698 221.49991,324.89792 222.85799,324.89792 C 224.22516,324.89792 225.28701,324.18243 226.04353,322.75143 C 226.70889,321.49363 227.09625,319.55678 227.20564,316.94089 M 227.16463,314.61667 C 226.90941,312.02814 226.53571,310.27814 226.04353,309.36667 C 225.25967,307.92658 224.19782,307.20653 222.85799,307.20651 C 221.46345,307.20653 220.39704,307.91747 219.65877,309.33932 C 219.07543,310.48778 218.69717,312.24689 218.524,314.61667 L 227.16463,314.61667 M 222.85799,305.15573 C 225.04548,305.15575 226.76357,306.1219 228.01228,308.05417 C 229.26097,309.97736 229.88531,312.64338 229.88533,316.05222 C 229.88531,319.45196 229.26097,322.11798 228.01228,324.05026 C 226.76357,325.99167 225.04548,326.96237 222.85799,326.96237 C 220.66137,326.96237 218.94327,325.99167 217.70369,324.05026 C 216.45499,322.11798 215.83064,319.45196 215.83064,316.05222 C 215.83064,312.64338 216.45499,309.97736 217.70369,308.05417 C 218.94327,306.1219 220.66137,305.15575 222.85799,305.15573 M 242.85994,322.92917 C 242.70499,322.92917 242.57739,322.86993 242.47713,322.75143 C 242.37687,322.63295 242.32673,322.50534 242.32674,322.36862 C 242.32673,322.21368 242.37687,322.08152 242.47713,321.97214 C 242.57739,321.86277 242.70499,321.80808 242.85994,321.80807 L 260.44197,321.80807 C 260.57867,321.80808 260.69716,321.86277 260.79744,321.97214 C 260.89768,322.08152 260.94781,322.21368 260.94783,322.36862 C 260.94781,322.50534 260.89768,322.63295 260.79744,322.75143 C 260.69716,322.86993 260.57867,322.92917 260.44197,322.92917 L 242.85994,322.92917 M 242.85994,317.48776 C 242.70499,317.48777 242.57739,317.43308 242.47713,317.3237 C 242.37687,317.21433 242.32673,317.08217 242.32674,316.92722 C 242.32673,316.79051 242.37687,316.6629 242.47713,316.5444 C 242.57739,316.42592 242.70499,316.36668 242.85994,316.36667 L 260.44197,316.36667 C 260.57867,316.36668 260.69716,316.42592 260.79744,316.5444 C 260.89768,316.6629 260.94781,316.79051 260.94783,316.92722 C 260.94781,317.08217 260.89768,317.21433 260.79744,317.3237 C 260.69716,317.43308 260.57867,317.48777 260.44197,317.48776 L 242.85994,317.48776 M 272.99275,323.89987 C 272.99275,322.7879 273.43025,321.88555 274.30525,321.19284 C 275.18025,320.49102 276.22842,319.99884 277.44978,319.71628 C 278.68025,319.42462 279.84691,319.27879 280.94978,319.27878 L 280.94978,318.13034 C 280.94977,317.59259 280.83128,317.07306 280.59431,316.57175 C 280.35733,316.06134 280.01553,315.64663 279.56892,315.32761 C 279.1223,314.99949 278.63012,314.83543 278.09236,314.83542 C 276.85277,314.83543 275.90941,315.11343 275.26228,315.6694 C 275.61775,315.66941 275.90941,315.80613 276.13728,316.07956 C 276.37426,316.34389 276.49275,316.65379 276.49275,317.00925 C 276.49275,317.38295 276.36059,317.70196 276.09627,317.96628 C 275.83194,318.23061 275.51749,318.36277 275.15291,318.36276 C 274.77921,318.36277 274.4602,318.23061 274.19588,317.96628 C 273.93155,317.70196 273.79939,317.38295 273.79939,317.00925 C 273.79939,316.02488 274.246,315.29572 275.13924,314.82175 C 276.03246,314.33869 277.01684,314.09715 278.09236,314.09714 C 278.84886,314.09715 279.60993,314.26121 280.37556,314.58932 C 281.14118,314.90835 281.76553,315.36863 282.24861,315.97018 C 282.74079,316.57176 282.98688,317.27358 282.98689,318.07565 L 282.98689,324.37839 C 282.98688,324.74297 283.06436,325.08021 283.21931,325.39011 C 283.37425,325.69089 283.61579,325.84128 283.94392,325.84128 C 284.25381,325.84128 284.48167,325.68633 284.62752,325.37643 C 284.78245,325.06654 284.85993,324.73386 284.85994,324.37839 L 284.85994,322.58737 L 285.68025,322.58737 L 285.68025,324.37839 C 285.68024,324.79766 285.57086,325.1987 285.35213,325.58151 C 285.13336,325.95521 284.83714,326.25599 284.46346,326.48386 C 284.09886,326.70261 283.70238,326.81198 283.274,326.81198 C 282.72712,326.81198 282.25316,326.60235 281.85213,326.18307 C 281.46019,325.75469 281.24144,325.24883 281.19588,324.6655 C 280.84951,325.36732 280.3391,325.92787 279.66463,326.34714 C 278.99014,326.75729 278.27009,326.96237 277.50447,326.96237 C 276.79353,326.96237 276.09171,326.85755 275.399,326.64792 C 274.71541,326.43828 274.14119,326.11016 273.67635,325.66354 C 273.22062,325.20782 272.99275,324.61993 272.99275,323.89987 M 275.26228,323.89987 C 275.26228,324.55612 275.50382,325.10756 275.98689,325.55417 C 276.46996,326.00078 277.03962,326.22409 277.69588,326.22409 C 278.29743,326.22409 278.84431,326.0737 279.3365,325.77292 C 279.82868,325.47214 280.22061,325.06198 280.51228,324.54245 C 280.80394,324.02292 280.94977,323.47605 280.94978,322.90182 L 280.94978,319.98972 C 280.10212,319.98972 279.23168,320.131 278.33846,320.41354 C 277.45434,320.68699 276.72061,321.11993 276.13728,321.71237 C 275.55395,322.30482 275.26228,323.03399 275.26228,323.89987 M 286.59627,326.64792 L 286.59627,325.66354 C 287.23429,325.66354 287.75838,325.61341 288.16853,325.51315 C 288.57869,325.41289 288.78376,325.1668 288.78377,324.77487 L 288.78377,317.13229 C 288.78376,316.631 288.70629,316.27098 288.55135,316.05222 C 288.40551,315.82436 288.19132,315.68764 287.90877,315.64206 C 287.62621,315.58738 287.18871,315.56004 286.59627,315.56003 L 286.59627,314.57565 L 290.60213,314.27487 L 290.60213,317.00925 C 290.9029,316.19806 291.33129,315.54181 291.88728,315.0405 C 292.44327,314.53009 293.11774,314.27488 293.91072,314.27487 C 294.4667,314.27488 294.96345,314.43895 295.40096,314.76706 C 295.83845,315.0952 296.0572,315.52814 296.05721,316.06589 C 296.0572,316.40314 295.93415,316.69936 295.68806,316.95456 C 295.45108,317.20066 295.15485,317.32371 294.79939,317.3237 C 294.45303,317.32371 294.15681,317.20066 293.91072,316.95456 C 293.66462,316.70848 293.54157,316.41225 293.54158,316.06589 C 293.54157,315.5646 293.71931,315.20913 294.07478,314.99948 L 293.91072,314.99948 C 293.1542,314.99949 292.53441,315.27293 292.05135,315.81979 C 291.57738,316.36668 291.24014,317.04571 291.03963,317.8569 C 290.8391,318.66811 290.73884,319.44285 290.73885,320.18112 L 290.73885,324.77487 C 290.73884,325.36732 291.64574,325.66354 293.45955,325.66354 L 293.45955,326.64792 L 286.59627,326.64792 M 303.78181,326.96237 C 302.6516,326.96237 301.62621,326.67071 300.70564,326.08737 C 299.78507,325.49493 299.06046,324.71107 298.53181,323.73581 C 298.00317,322.75144 297.73884,321.70782 297.73885,320.60495 C 297.73884,319.50209 297.99861,318.4448 298.51814,317.43307 C 299.04679,316.42137 299.77139,315.61473 300.69197,315.01315 C 301.62165,314.40249 302.6516,314.09715 303.78181,314.09714 C 304.87556,314.09715 305.86905,314.31134 306.76228,314.73972 C 307.66462,315.16811 308.11579,315.86993 308.1158,316.84518 C 308.11579,317.20978 307.98363,317.52879 307.71931,317.80222 C 307.4641,318.06655 307.14964,318.19871 306.77596,318.1987 C 306.40225,318.19871 306.08324,318.06655 305.81892,317.80222 C 305.56371,317.52879 305.4361,317.20978 305.43611,316.84518 C 305.4361,316.51707 305.54092,316.23452 305.75056,315.99753 C 305.96019,315.75145 306.21996,315.5965 306.52986,315.53268 C 305.88272,315.12254 304.97582,314.91746 303.80916,314.91745 C 302.91592,314.91746 302.19587,315.21369 301.649,315.80612 C 301.10212,316.39858 300.71931,317.1323 300.50056,318.00729 C 300.28181,318.8823 300.17244,319.74819 300.17244,320.60495 C 300.17244,321.5073 300.3046,322.3823 300.56892,323.22995 C 300.84236,324.06849 301.2753,324.76576 301.86775,325.32175 C 302.46931,325.86862 303.22126,326.14206 304.12361,326.14206 C 305.00772,326.14206 305.75967,325.87318 306.37947,325.33542 C 306.99925,324.78855 307.42308,324.07761 307.65096,323.20261 C 307.65094,323.09323 307.72386,323.03855 307.86971,323.03854 L 308.2115,323.03854 C 308.26618,323.03855 308.31631,323.06589 308.36189,323.12057 C 308.40745,323.16615 308.43024,323.22084 308.43025,323.28464 L 308.43025,323.36667 C 308.14769,324.46954 307.58714,325.34453 306.74861,325.99167 C 305.91006,326.6388 304.92113,326.96237 303.78181,326.96237 M 316.19588,326.96237 C 315.06566,326.96237 314.04027,326.67071 313.11971,326.08737 C 312.19913,325.49493 311.47452,324.71107 310.94588,323.73581 C 310.41723,322.75144 310.15291,321.70782 310.15291,320.60495 C 310.15291,319.50209 310.41267,318.4448 310.93221,317.43307 C 311.46085,316.42137 312.18546,315.61473 313.10603,315.01315 C 314.03572,314.40249 315.06566,314.09715 316.19588,314.09714 C 317.28962,314.09715 318.28311,314.31134 319.17635,314.73972 C 320.07868,315.16811 320.52985,315.86993 320.52986,316.84518 C 320.52985,317.20978 320.39769,317.52879 320.13338,317.80222 C 319.87816,318.06655 319.56371,318.19871 319.19002,318.1987 C 318.81631,318.19871 318.4973,318.06655 318.23299,317.80222 C 317.97777,317.52879 317.85017,317.20978 317.85017,316.84518 C 317.85017,316.51707 317.95498,316.23452 318.16463,315.99753 C 318.37425,315.75145 318.63402,315.5965 318.94392,315.53268 C 318.29678,315.12254 317.38988,314.91746 316.22322,314.91745 C 315.32999,314.91746 314.60993,315.21369 314.06306,315.80612 C 313.51619,316.39858 313.13337,317.1323 312.91463,318.00729 C 312.69587,318.8823 312.5865,319.74819 312.5865,320.60495 C 312.5865,321.5073 312.71866,322.3823 312.98299,323.22995 C 313.25642,324.06849 313.68936,324.76576 314.28181,325.32175 C 314.88337,325.86862 315.63532,326.14206 316.53767,326.14206 C 317.42178,326.14206 318.17373,325.87318 318.79353,325.33542 C 319.41331,324.78855 319.83714,324.07761 320.06502,323.20261 C 320.06501,323.09323 320.13792,323.03855 320.28377,323.03854 L 320.62556,323.03854 C 320.68024,323.03855 320.73037,323.06589 320.77596,323.12057 C 320.82152,323.16615 320.8443,323.22084 320.84431,323.28464 L 320.84431,323.36667 C 320.56175,324.46954 320.0012,325.34453 319.16267,325.99167 C 318.32412,326.6388 317.33519,326.96237 316.19588,326.96237 M 328.63728,326.96237 C 327.51618,326.96237 326.47712,326.67982 325.5201,326.11472 C 324.56306,325.5405 323.80655,324.77487 323.25056,323.81784 C 322.69457,322.86081 322.41658,321.81719 322.41658,320.68698 C 322.41658,319.83022 322.56697,319.00535 322.86775,318.21237 C 323.17765,317.41941 323.61515,316.71303 324.18025,316.09323 C 324.75447,315.46434 325.41983,314.97671 326.17635,314.63034 C 326.93285,314.27488 327.75316,314.09715 328.63728,314.09714 C 329.78571,314.09715 330.82933,314.40249 331.76814,315.01315 C 332.71605,315.61473 333.46344,316.42592 334.01033,317.44675 C 334.55719,318.45847 334.83063,319.53855 334.83064,320.68698 C 334.83063,321.80808 334.55263,322.8517 333.99666,323.81784 C 333.44066,324.77487 332.68415,325.5405 331.72713,326.11472 C 330.7792,326.67982 329.74925,326.96237 328.63728,326.96237 M 328.63728,326.14206 C 330.13207,326.14206 331.13011,325.59974 331.63142,324.51511 C 332.13272,323.43047 332.38337,322.04962 332.38338,320.37253 C 332.38337,319.43373 332.33324,318.65899 332.23299,318.04831 C 332.13272,317.42853 331.91397,316.86798 331.57674,316.36667 C 331.36709,316.05678 331.09821,315.7879 330.7701,315.56003 C 330.45108,315.32306 330.10928,315.14533 329.74471,315.02682 C 329.38923,314.89923 329.02009,314.83543 328.63728,314.83542 C 328.05394,314.83543 327.49795,314.96759 326.96931,315.2319 C 326.44978,315.49624 326.01684,315.87449 325.67049,316.36667 C 325.32413,316.89532 325.10082,317.47866 325.00056,318.11667 C 324.90942,318.74558 324.86384,319.49754 324.86385,320.37253 C 324.86384,321.42071 324.95499,322.36407 325.13728,323.20261 C 325.31957,324.03204 325.68415,324.7293 326.23103,325.2944 C 326.78702,325.85951 327.5891,326.14206 328.63728,326.14206 M 336.56697,326.72995 L 336.56697,322.16354 C 336.56697,322.01771 336.649,321.9448 336.81306,321.94479 L 337.15486,321.94479 C 337.26423,321.9448 337.33715,322.01771 337.37361,322.16354 C 337.89314,324.87058 339.15095,326.22409 341.14705,326.22409 C 342.03116,326.22409 342.76944,326.02357 343.36189,325.62253 C 343.96345,325.22149 344.26423,324.6017 344.26424,323.76315 C 344.26423,323.16159 344.03181,322.65118 343.56697,322.2319 C 343.10212,321.80352 342.55069,321.51186 341.91267,321.3569 L 340.03963,320.98776 C 339.41072,320.85105 338.8365,320.64141 338.31697,320.35886 C 337.80655,320.07631 337.38728,319.70261 337.05916,319.23776 C 336.73103,318.76381 336.56697,318.21694 336.56697,317.59714 C 336.56697,316.77683 336.78116,316.10691 337.20955,315.58737 C 337.64705,315.05874 338.21215,314.68048 338.90486,314.45261 C 339.59757,314.21564 340.34496,314.09715 341.14705,314.09714 C 342.10407,314.09715 342.93806,314.35236 343.649,314.86276 L 344.45564,314.1655 C 344.45563,314.11994 344.50121,314.09715 344.59236,314.09714 L 344.79744,314.09714 C 344.85212,314.09715 344.90225,314.12449 344.94783,314.17917 C 344.99339,314.22475 345.01618,314.27488 345.01619,314.32956 L 345.01619,317.99362 C 345.01618,318.16681 344.94326,318.2534 344.79744,318.25339 L 344.45564,318.25339 C 344.29157,318.2534 344.20954,318.16681 344.20955,317.99362 C 344.20954,317.01837 343.9361,316.23452 343.38924,315.64206 C 342.85147,315.04962 342.09496,314.7534 341.11971,314.75339 C 340.28116,314.7534 339.55199,314.90835 338.93221,315.21823 C 338.32153,315.52814 338.01619,316.06134 338.01619,316.81784 C 338.01619,317.33738 338.23494,317.76577 338.67244,318.103 C 339.11905,318.43113 339.63858,318.66811 340.23103,318.81393 L 342.13142,319.1694 C 342.76944,319.31524 343.36188,319.56134 343.90877,319.90768 C 344.46475,320.25404 344.90225,320.69154 345.22127,321.22018 C 345.54938,321.74884 345.71345,322.34584 345.71346,323.0112 C 345.71345,323.68568 345.59496,324.27357 345.35799,324.77487 C 345.13011,325.26706 344.80654,325.67722 344.38728,326.00534 C 343.97712,326.33347 343.48949,326.575 342.92439,326.72995 C 342.35928,326.8849 341.76683,326.96237 341.14705,326.96237 C 339.98038,326.96237 338.98233,326.57044 338.15291,325.78659 L 337.12752,326.89401 C 337.12752,326.93959 337.07739,326.96237 336.97713,326.96237 L 336.81306,326.96237 C 336.649,326.96237 336.56697,326.8849 336.56697,326.72995 M 355.3658,333.59323 C 354.32673,332.77291 353.42894,331.82955 352.67244,330.76315 C 351.92504,329.70586 351.3098,328.57565 350.82674,327.37253 C 350.35277,326.1694 349.99731,324.91159 349.76033,323.59909 C 349.52335,322.28659 349.40486,320.96954 349.40486,319.64792 C 349.40486,318.30808 349.52335,316.98191 349.76033,315.6694 C 349.99731,314.35692 350.35733,313.09455 350.84041,311.88229 C 351.33259,310.67007 351.95694,309.53531 352.71346,308.478 C 353.46996,307.42072 354.35407,306.4956 355.3658,305.70261 C 355.36579,305.66617 355.41136,305.64794 355.50252,305.64792 L 355.76228,305.64792 C 355.81696,305.64794 355.86709,305.67528 355.91267,305.72995 C 355.95824,305.77554 355.98102,305.83023 355.98103,305.89401 C 355.98102,305.97606 355.96279,306.03531 355.92635,306.07175 C 355.01488,306.965 354.25381,307.92203 353.64314,308.94284 C 353.04157,309.96369 352.55394,311.05288 352.18025,312.21042 C 351.81566,313.35887 351.55134,314.55288 351.38728,315.79245 C 351.22322,317.02293 351.14119,318.30808 351.14119,319.64792 C 351.14119,325.58151 352.72712,330.08867 355.899,333.1694 C 355.95368,333.22408 355.98102,333.30156 355.98103,333.40182 C 355.98102,333.44739 355.95368,333.49752 355.899,333.55222 C 355.85342,333.61601 355.80785,333.64791 355.76228,333.64792 L 355.50252,333.64792 C 355.41136,333.64791 355.36579,333.62968 355.3658,333.59323 M 405.89705,333.08737 C 405.89705,333.03268 405.90616,332.99622 405.92439,332.978 L 415.65877,305.98972 C 415.69521,305.88036 415.75902,305.79833 415.85017,305.74362 C 415.94131,305.67984 416.04613,305.64794 416.16463,305.64792 C 416.32868,305.64794 416.46084,305.69807 416.56111,305.79831 C 416.67047,305.89859 416.72516,306.03531 416.72517,306.20847 L 416.72517,306.31784 L 406.9908,333.30612 C 406.88142,333.53398 406.70369,333.64791 406.4576,333.64792 C 406.30265,333.64791 406.17048,333.59322 406.06111,333.48386 C 405.95173,333.37447 405.89705,333.24231 405.89705,333.08737 M 485.60408,333.64792 C 485.44002,333.64791 485.35798,333.56588 485.35799,333.40182 C 485.35798,333.31979 485.37621,333.26054 485.41267,333.22409 C 488.60277,330.1069 490.19782,325.58151 490.19783,319.64792 C 490.19782,313.71434 488.621,309.20718 485.46736,306.12643 C 485.39444,306.08088 485.35798,306.00341 485.35799,305.89401 C 485.35798,305.83023 485.38077,305.77554 485.42635,305.72995 C 485.48103,305.67528 485.54028,305.64794 485.60408,305.64792 L 485.86385,305.64792 C 485.91853,305.64794 485.9641,305.66617 486.00056,305.70261 C 487.3404,306.75992 488.45694,308.04507 489.35017,309.55807 C 490.2434,311.07111 490.89509,312.68439 491.30525,314.39792 C 491.72451,316.11147 491.93415,317.86147 491.93416,319.64792 C 491.93415,320.96954 491.82022,322.27292 491.59236,323.55807 C 491.3736,324.83412 491.01814,326.09193 490.52596,327.33151 C 490.04288,328.58021 489.42764,329.72864 488.68025,330.77682 C 487.93285,331.83411 487.03962,332.77291 486.00056,333.59323 C 485.9641,333.62968 485.91853,333.64791 485.86385,333.64792 L 485.60408,333.64792"
       style="font-size:28px;font-style:normal;font-variant:normal;font-weight:normal;font-stretch:normal;text-align:start;line-height:125%;writing-mode:lr-tb;text-anchor:start;fill:#000000;fill-opacity:1;stroke:none;stroke-width:1pt;stroke-linecap:butt;stroke-linejoin:miter;stroke-opacity:1;font-family:cmr10"
       id="text5295" />
    <path
       d="M 361.20566,324.39594 C 361.53378,324.65114 361.99862,324.77875 362.60019,324.77875 C 363.18352,324.77875 363.69849,324.50075 364.14511,323.94476 C 364.59172,323.37966 364.89706,322.76443 365.06113,322.09906 L 366.33261,317.13617 C 366.53312,316.23383 366.63338,315.6186 366.63339,315.29047 C 366.63338,314.82563 366.50122,314.42003 366.23691,314.07367 C 365.98169,313.72733 365.62167,313.55415 365.15683,313.55414 C 364.56438,313.55415 364.00839,313.741 363.48886,314.11469 C 362.96933,314.47928 362.53183,314.94868 362.17636,315.52289 C 361.82089,316.088 361.57024,316.66222 361.42441,317.24554 C 361.38795,317.36404 361.31503,317.42329 361.20566,317.42328 L 360.86386,317.42328 C 360.71803,317.42329 360.64511,317.3367 360.64511,317.16351 L 360.64511,317.08148 C 360.8274,316.38878 361.1373,315.7143 361.5748,315.05804 C 362.0123,314.39269 362.5455,313.85493 363.17441,313.44476 C 363.81242,313.03462 364.49146,312.82954 365.21152,312.82953 C 365.8951,312.82954 366.51034,313.01183 367.05722,313.3764 C 367.6132,313.741 368.00513,314.23774 368.233,314.86664 C 368.552,314.29243 368.9576,313.80936 369.4498,313.41742 C 369.95109,313.0255 370.49796,312.82954 371.09042,312.82953 C 371.49145,312.82954 371.90161,312.90246 372.32089,313.04828 C 372.74015,313.18501 373.08195,313.3992 373.34628,313.69086 C 373.61059,313.98253 373.74275,314.34712 373.74277,314.78461 C 373.74275,315.25858 373.5878,315.66873 373.27792,316.01508 C 372.97713,316.35232 372.58976,316.52094 372.11581,316.52094 C 371.81502,316.52094 371.56437,316.42524 371.36386,316.23383 C 371.16333,316.04243 371.06307,315.80089 371.06308,315.50922 C 371.06307,315.1173 371.19523,314.7755 371.45956,314.48383 C 371.73299,314.18306 372.05656,314.00532 372.43027,313.95062 C 372.09301,313.68631 371.62817,313.55415 371.03574,313.55414 C 370.43416,313.55415 369.91007,313.83214 369.46347,314.38812 C 369.02596,314.94412 368.71606,315.56391 368.53378,316.2475 L 367.30331,321.19672 C 367.10279,321.94412 367.00252,322.55935 367.00253,323.04242 C 367.00252,323.51638 367.13469,323.92654 367.39902,324.27289 C 367.67245,324.61013 368.03247,324.77875 368.4791,324.77875 C 369.35409,324.77875 370.13338,324.39594 370.81699,323.63031 C 371.50968,322.85557 371.96541,322.00792 372.18417,321.08734 C 372.22062,320.97797 372.29354,320.92328 372.40292,320.92328 L 372.74472,320.92328 C 372.81762,320.92328 372.87687,320.95063 372.92245,321.00531 C 372.96801,321.05089 372.9908,321.10557 372.99081,321.16937 C 372.9908,321.18761 372.98169,321.21495 372.96347,321.2514 C 372.69913,322.36339 372.14314,323.35232 371.2955,324.2182 C 370.44783,325.08409 369.4908,325.51703 368.42441,325.51703 C 367.74081,325.51703 367.12101,325.33474 366.56503,324.97015 C 366.01815,324.59646 365.63078,324.09515 365.40292,323.46625 C 365.11125,324.01312 364.70565,324.49164 364.18613,324.90179 C 363.67571,325.31195 363.12883,325.51703 362.5455,325.51703 C 362.14446,325.51703 361.72974,325.44411 361.30136,325.29828 C 360.88209,325.16156 360.54029,324.94737 360.27597,324.6557 C 360.01165,324.36403 359.87949,323.99489 359.87949,323.54828 C 359.87949,323.11078 360.02988,322.7143 360.33066,322.35883 C 360.64055,321.99425 361.02336,321.81195 361.4791,321.81195 C 361.78899,321.81195 362.04875,321.90766 362.25839,322.09906 C 362.46802,322.28135 362.57284,322.52289 362.57285,322.82367 C 362.57284,323.2156 362.44068,323.5574 362.17636,323.84906 C 361.92115,324.14073 361.59758,324.32302 361.20566,324.39594"
       style="font-size:28px;font-style:normal;font-variant:normal;font-weight:normal;font-stretch:normal;text-align:start;line-height:125%;writing-mode:lr-tb;text-anchor:start;fill:#000000;fill-opacity:1;stroke:none;stroke-width:1pt;stroke-linecap:butt;stroke-linejoin:miter;stroke-opacity:1;font-family:cmmi10"
       id="text5299" />
    <path
       d="M 390.57996,327.80765 C 390.97188,328.48212 391.65547,328.81936 392.63074,328.81937 C 393.51485,328.81936 394.28047,328.50947 394.92761,327.88968 C 395.57474,327.26988 396.09427,326.51793 396.48621,325.63382 C 396.88724,324.75882 397.19713,323.86103 397.41589,322.94046 C 396.58646,323.72431 395.68867,324.11624 394.72253,324.11624 C 393.98425,324.11624 393.35534,323.98864 392.83582,323.73343 C 392.31628,323.47822 391.91068,323.09997 391.61902,322.59866 C 391.33646,322.08825 391.19519,321.47301 391.19519,320.75296 C 391.19519,320.14229 391.27722,319.51794 391.44128,318.87991 C 391.60534,318.23278 391.83321,317.51729 392.12488,316.73343 C 392.42565,315.94047 392.68542,315.25232 392.90417,314.66898 C 393.15026,313.98539 393.27331,313.42485 393.27332,312.98734 C 393.27331,312.43136 393.06823,312.15336 392.65808,312.15335 C 391.9198,312.15336 391.30912,312.53617 390.82605,313.30179 C 390.35209,314.05831 390.00118,314.90596 389.77332,315.84476 C 389.73686,315.96325 389.65938,316.0225 389.54089,316.02249 L 389.21277,316.02249 C 389.05782,316.0225 388.98035,315.93591 388.98035,315.76273 L 388.98035,315.68069 C 389.28113,314.56872 389.74141,313.58435 390.36121,312.72757 C 390.98099,311.8617 391.76485,311.42875 392.71277,311.42874 C 393.37813,311.42875 393.93867,311.6475 394.39441,312.08499 C 394.85925,312.5225 395.09167,313.07849 395.09167,313.75296 C 395.09167,314.09932 395.01419,314.46391 394.85925,314.84671 C 394.77722,315.07458 394.59037,315.57133 394.29871,316.33694 C 394.00703,317.10258 393.78373,317.73604 393.62878,318.23734 C 393.47383,318.73864 393.34623,319.23083 393.24597,319.7139 C 393.14571,320.19697 393.09558,320.68005 393.09558,321.16312 C 393.09558,321.78291 393.22774,322.307 393.49207,322.73538 C 393.75638,323.16377 394.17565,323.37796 394.74988,323.37796 C 395.90742,323.37796 396.94648,322.67158 397.86707,321.25882 L 399.98621,312.63187 C 400.05,312.38578 400.19583,312.17615 400.42371,312.00296 C 400.65156,311.82068 400.89765,311.72953 401.16199,311.72952 C 401.38984,311.72953 401.5858,311.80245 401.74988,311.94827 C 401.92304,312.09412 402.00963,312.28552 402.00964,312.52249 C 402.00963,312.63188 402.00052,312.70479 401.9823,312.74124 L 399.20691,323.88382 C 398.9608,324.84085 398.50963,325.75686 397.85339,326.63187 C 397.19713,327.50686 396.40417,328.20868 395.47449,328.73734 C 394.55391,329.27509 393.59232,329.54397 392.58972,329.54398 C 392.10664,329.54397 391.62813,329.44827 391.15417,329.25687 C 390.68021,329.07457 390.2974,328.79658 390.00574,328.42288 C 389.71407,328.04918 389.56824,327.61168 389.56824,327.11038 C 389.56824,326.59996 389.71863,326.15791 390.01941,325.78421 C 390.32019,325.41051 390.72123,325.22366 391.22253,325.22366 C 391.52331,325.22366 391.77396,325.31481 391.97449,325.4971 C 392.18412,325.68851 392.28894,325.9346 392.28894,326.23538 C 392.28894,326.66376 392.12943,327.03746 391.81042,327.35648 C 391.49141,327.67548 391.11771,327.83499 390.68933,327.83499 C 390.6711,327.82587 390.65287,327.81676 390.63464,327.80765 C 390.61641,327.80764 390.59818,327.80764 390.57996,327.80765"
       style="font-size:28px;font-style:normal;font-variant:normal;font-weight:normal;font-stretch:normal;text-align:start;line-height:125%;writing-mode:lr-tb;text-anchor:start;fill:#000000;fill-opacity:1;stroke:none;stroke-width:1pt;stroke-linecap:butt;stroke-linejoin:miter;stroke-opacity:1;font-family:cmmi10"
       id="text5303" />
    <text
       x="268.70059"
       y="258.88736"
       style="font-size:16px;font-style:normal;font-variant:normal;font-weight:normal;font-stretch:normal;text-align:start;line-height:125%;writing-mode:lr-tb;text-anchor:start;fill:#000000;fill-opacity:1;stroke:none;stroke-width:1pt;stroke-linecap:butt;stroke-linejoin:miter;stroke-opacity:1;font-family:Ouhod-Bold"
       id="text5307"
       xml:space="preserve"><tspan
         x="268.70059"
         y="258.88736"
         id="tspan5309"></tspan></text>
    <path
       d="M 378.58652,319.09921 C 378.58652,318.7138 378.65422,318.35182 378.78964,318.01328 C 378.93026,317.67474 379.13339,317.37526 379.39902,317.11484 C 379.67506,316.84922 379.98235,316.6487 380.32089,316.51328 C 380.65943,316.37266 381.0188,316.30235 381.39902,316.30234 C 381.77922,316.30235 382.13859,316.37266 382.47714,316.51328 C 382.82089,316.65391 383.12297,316.85443 383.38339,317.11484 C 383.65422,317.38568 383.85734,317.69037 383.99277,318.0289 C 384.13338,318.36224 384.2037,318.71901 384.2037,319.09921 C 384.2037,319.48463 384.13338,319.84922 383.99277,320.19296 C 383.85213,320.53151 383.64901,320.83359 383.38339,321.09921 C 383.11776,321.36484 382.81307,321.56797 382.46933,321.70859 C 382.13078,321.84922 381.7688,321.91953 381.38339,321.91953 C 381.00318,321.91953 380.6438,321.84922 380.30527,321.70859 C 379.96672,321.56797 379.66464,321.36484 379.39902,321.09921 C 379.1386,320.83359 378.93808,320.53151 378.79745,320.19296 C 378.65683,319.84922 378.58652,319.48463 378.58652,319.09921 M 423.68027,312.82578 L 423.68027,328.82578 L 421.90683,328.82578 L 421.90683,312.82578 L 423.68027,312.82578 M 446.21152,312.82578 L 446.21152,328.82578 L 444.43808,328.82578 L 444.43808,312.82578 L 446.21152,312.82578 M 457.61777,312.82578 L 457.61777,328.82578 L 455.84433,328.82578 L 455.84433,312.82578 L 457.61777,312.82578 M 480.14902,312.82578 L 480.14902,328.82578 L 478.37558,328.82578 L 478.37558,312.82578 L 480.14902,312.82578"
       style="font-size:16px;font-style:normal;font-variant:normal;font-weight:normal;font-stretch:normal;text-align:start;line-height:125%;writing-mode:lr-tb;text-anchor:start;fill:#000000;fill-opacity:1;stroke:none;stroke-width:1pt;stroke-linecap:butt;stroke-linejoin:miter;stroke-opacity:1;font-family:Ouhod-Bold"
       id="text5313" />
    <path
       d="M 428.12564,324.61368 C 428.45376,324.86889 428.91861,324.99649 429.52017,324.99649 C 430.1035,324.99649 430.61847,324.7185 431.06509,324.16251 C 431.5117,323.5974 431.81704,322.98217 431.98111,322.3168 L 433.25259,317.35391 C 433.45311,316.45158 433.55337,315.83634 433.55338,315.50821 C 433.55337,315.04338 433.42121,314.63778 433.15689,314.29141 C 432.90168,313.94507 432.54165,313.77189 432.07681,313.77188 C 431.48436,313.77189 430.92837,313.95874 430.40884,314.33243 C 429.88931,314.69702 429.45181,315.16642 429.09634,315.74063 C 428.74087,316.30574 428.49022,316.87996 428.34439,317.46329 C 428.30793,317.58178 428.23501,317.64103 428.12564,317.64102 L 427.78384,317.64102 C 427.63801,317.64103 427.56509,317.55444 427.56509,317.38126 L 427.56509,317.29922 C 427.74738,316.60653 428.05728,315.93205 428.49478,315.27579 C 428.93228,314.61043 429.46548,314.07267 430.09439,313.66251 C 430.73241,313.25236 431.41144,313.04728 432.1315,313.04727 C 432.81509,313.04728 433.43032,313.22958 433.9772,313.59415 C 434.53318,313.95874 434.92511,314.45549 435.15298,315.08438 C 435.47199,314.51017 435.87758,314.0271 436.36978,313.63516 C 436.87107,313.24325 437.41795,313.04728 438.01041,313.04727 C 438.41144,313.04728 438.82159,313.1202 439.24088,313.26602 C 439.66013,313.40275 440.00193,313.61694 440.26627,313.9086 C 440.53057,314.20028 440.66274,314.56486 440.66275,315.00235 C 440.66274,315.47632 440.50779,315.88647 440.19791,316.23282 C 439.89711,316.57007 439.50974,316.73869 439.0358,316.73868 C 438.735,316.73869 438.48435,316.64298 438.28384,316.45157 C 438.08331,316.26017 437.98305,316.01864 437.98306,315.72696 C 437.98305,315.33504 438.11521,314.99325 438.37955,314.70157 C 438.65297,314.4008 438.97654,314.22306 439.35025,314.16837 C 439.013,313.90405 438.54815,313.77189 437.95572,313.77188 C 437.35415,313.77189 436.83006,314.04989 436.38345,314.60587 C 435.94594,315.16187 435.63605,315.78166 435.45377,316.46524 L 434.2233,321.41446 C 434.02277,322.16186 433.92251,322.77709 433.92252,323.26016 C 433.92251,323.73412 434.05467,324.14428 434.319,324.49063 C 434.59243,324.82787 434.95245,324.99649 435.39908,324.99649 C 436.27407,324.99649 437.05336,324.61368 437.73697,323.84805 C 438.42966,323.07332 438.88539,322.22566 439.10416,321.30508 C 439.1406,321.19571 439.21352,321.14103 439.32291,321.14102 L 439.6647,321.14102 C 439.73761,321.14103 439.79685,321.16837 439.84244,321.22305 C 439.888,321.26863 439.91078,321.32332 439.9108,321.38712 C 439.91078,321.40535 439.90167,321.43269 439.88345,321.46915 C 439.61912,322.58113 439.06313,323.57006 438.21548,324.43594 C 437.36782,325.30183 436.41079,325.73477 435.34439,325.73477 C 434.66079,325.73477 434.041,325.55248 433.48502,325.1879 C 432.93813,324.8142 432.55076,324.3129 432.32291,323.68399 C 432.03123,324.23087 431.62564,324.70938 431.10611,325.11954 C 430.59569,325.52969 430.04881,325.73477 429.46548,325.73477 C 429.06444,325.73477 428.64973,325.66185 428.22134,325.51602 C 427.80207,325.3793 427.46027,325.16511 427.19595,324.87344 C 426.93163,324.58178 426.79947,324.21264 426.79947,323.76602 C 426.79947,323.32852 426.94986,322.93204 427.25064,322.57657 C 427.56054,322.21199 427.94335,322.0297 428.39908,322.02969 C 428.70897,322.0297 428.96874,322.1254 429.17838,322.3168 C 429.38801,322.4991 429.49282,322.74063 429.49283,323.04141 C 429.49282,323.43334 429.36066,323.77514 429.09634,324.0668 C 428.84113,324.35847 428.51757,324.54076 428.12564,324.61368"
       style="font-size:28px;font-style:normal;font-variant:normal;font-weight:normal;font-stretch:normal;text-align:start;line-height:125%;writing-mode:lr-tb;text-anchor:start;fill:#000000;fill-opacity:1;stroke:none;stroke-width:1pt;stroke-linecap:butt;stroke-linejoin:miter;stroke-opacity:1;font-family:cmmi10"
       id="text5321" />
    <path
       d="M 462.5101,329.54062 C 462.90203,330.21509 463.58562,330.55233 464.56088,330.55234 C 465.44499,330.55233 466.21062,330.24244 466.85776,329.62265 C 467.50489,329.00286 468.02442,328.2509 468.41635,327.36679 C 468.81738,326.49179 469.12728,325.594 469.34604,324.67343 C 468.5166,325.45729 467.61882,325.84921 466.65268,325.84921 C 465.91439,325.84921 465.28549,325.72161 464.76596,325.4664 C 464.24643,325.21119 463.84083,324.83294 463.54916,324.33163 C 463.26661,323.82122 463.12533,323.20599 463.12534,322.48593 C 463.12533,321.87526 463.20736,321.25091 463.37143,320.61288 C 463.53549,319.96575 463.76335,319.25026 464.05502,318.4664 C 464.3558,317.67344 464.61557,316.98529 464.83432,316.40195 C 465.08041,315.71836 465.20346,315.15782 465.20346,314.72031 C 465.20346,314.16433 464.99838,313.88633 464.58823,313.88632 C 463.84994,313.88633 463.23926,314.26915 462.7562,315.03476 C 462.28223,315.79128 461.93132,316.63894 461.70346,317.57773 C 461.667,317.69623 461.58953,317.75547 461.47104,317.75546 L 461.14291,317.75546 C 460.98797,317.75547 460.91049,317.66888 460.91049,317.4957 L 460.91049,317.41367 C 461.21127,316.3017 461.67156,315.31732 462.29135,314.46054 C 462.91114,313.59467 463.69499,313.16173 464.64291,313.16171 C 465.30827,313.16173 465.86882,313.38047 466.32455,313.81796 C 466.78939,314.25547 467.02181,314.81146 467.02182,315.48593 C 467.02181,315.8323 466.94434,316.19688 466.7894,316.57968 C 466.70736,316.80755 466.52051,317.3043 466.22885,318.06992 C 465.93718,318.83555 465.71387,319.46901 465.55893,319.97031 C 465.40398,320.47161 465.27637,320.9638 465.17612,321.44687 C 465.07585,321.92995 465.02572,322.41302 465.02573,322.89609 C 465.02572,323.51588 465.15788,324.03997 465.42221,324.46835 C 465.68653,324.89674 466.1058,325.11093 466.68002,325.11093 C 467.83757,325.11093 468.87663,324.40455 469.79721,322.99179 L 471.91635,314.36484 C 471.98014,314.11876 472.12597,313.90912 472.35385,313.73593 C 472.5817,313.55365 472.8278,313.46251 473.09213,313.46249 C 473.31998,313.46251 473.51595,313.53542 473.68002,313.68124 C 473.85319,313.82709 473.93978,314.01849 473.93979,314.25546 C 473.93978,314.36485 473.93066,314.43777 473.91245,314.47421 L 471.13705,325.61679 C 470.89095,326.57382 470.43978,327.48984 469.78354,328.36484 C 469.12728,329.23983 468.33431,329.94166 467.40463,330.47031 C 466.48405,331.00806 465.52247,331.27694 464.51987,331.27695 C 464.03679,331.27694 463.55828,331.18124 463.08432,330.98984 C 462.61036,330.80754 462.22755,330.52955 461.93588,330.15585 C 461.64421,329.78215 461.49838,329.34465 461.49838,328.84335 C 461.49838,328.33293 461.64877,327.89088 461.94955,327.51718 C 462.25033,327.14348 462.65137,326.95663 463.15268,326.95663 C 463.45346,326.95663 463.70411,327.04778 463.90463,327.23007 C 464.11426,327.42148 464.21908,327.66757 464.21909,327.96835 C 464.21908,328.39674 464.05958,328.77043 463.74057,329.08945 C 463.42156,329.40845 463.04786,329.56796 462.61948,329.56796 C 462.60124,329.55884 462.58302,329.54973 462.56479,329.54062 C 462.54656,329.54061 462.52833,329.54061 462.5101,329.54062"
       style="font-size:28px;font-style:normal;font-variant:normal;font-weight:normal;font-stretch:normal;text-align:start;line-height:125%;writing-mode:lr-tb;text-anchor:start;fill:#000000;fill-opacity:1;stroke:none;stroke-width:1pt;stroke-linecap:butt;stroke-linejoin:miter;stroke-opacity:1;font-family:cmmi10"
       id="text5325" />
  </g>
</svg>
